<svg width="254" height="305" viewBox="0 0 254 305" fill="none" xmlns="http://www.w3.org/2000/svg">
<path d="M40.6401 76.2H162.56C165.364 76.2 167.64 73.9242 167.64 71.12V35.56C167.64 32.7558 165.364 30.48 162.56 30.48H40.6401C37.8359 30.48 35.5601 32.7558 35.5601 35.56V71.12C35.5601 73.9242 37.8359 76.2 40.6401 76.2ZM45.7201 40.64H157.48V66.04H45.7201V40.64Z" fill="#478BFB"/>
<path d="M203.2 123.759V5.08C203.2 2.27584 200.924 0 198.12 0H5.08C2.27584 0 0 2.27584 0 5.08V299.72C0 302.524 2.27584 304.8 5.08 304.8H198.12C200.924 304.8 203.2 302.524 203.2 299.72V252.161C232.872 245.196 254 218.887 254 187.96C254 157.028 232.867 130.713 203.2 123.759ZM193.04 294.64H10.16V10.16H193.04V122.123C192.827 122.108 192.623 122.128 192.415 122.113C189.895 121.935 187.391 121.89 184.902 122.001C184.76 122.006 184.617 122.001 184.475 122.006C181.991 122.133 179.522 122.428 177.079 122.839C176.621 122.916 176.164 122.987 175.712 123.073C173.36 123.515 171.039 124.074 168.742 124.77C168.372 124.882 168.006 125.004 167.64 125.12V106.68C167.64 103.876 165.364 101.6 162.56 101.6H40.64C37.8358 101.6 35.56 103.876 35.56 106.68V142.24C35.56 145.044 37.8358 147.32 40.64 147.32H135.997C126.99 158.852 121.92 173.116 121.92 187.96C121.92 190.297 122.052 192.603 122.286 194.879C122.352 195.509 122.489 196.108 122.57 196.733C122.677 197.551 122.804 198.359 122.941 199.166C116.733 195.306 109.433 193.04 101.6 193.04C79.1921 193.04 60.96 211.272 60.96 233.68C60.96 256.088 79.1921 274.32 101.6 274.32C123.419 274.32 141.229 257.023 142.149 235.422C142.204 235.478 142.265 235.529 142.321 235.58C142.966 236.2 143.637 236.789 144.308 237.383C145.237 238.201 146.172 239.004 147.147 239.776C147.93 240.396 148.732 240.985 149.54 241.569C150.454 242.225 151.379 242.865 152.324 243.474C153.259 244.079 154.203 244.648 155.169 245.201C156.042 245.704 156.931 246.187 157.831 246.654C158.913 247.213 160.005 247.741 161.117 248.239C161.955 248.615 162.799 248.966 163.652 249.301C164.866 249.784 166.086 250.241 167.335 250.652C168.148 250.922 168.971 251.16 169.799 251.394C171.105 251.77 172.42 252.12 173.756 252.415C174.595 252.598 175.438 252.745 176.286 252.898C177.627 253.136 178.968 253.36 180.335 253.517C181.285 253.624 182.25 253.685 183.21 253.751C184.475 253.837 185.73 253.929 187.01 253.944C187.325 253.954 187.64 254 187.96 254C189.337 254 190.724 253.909 192.11 253.822C192.425 253.802 192.73 253.822 193.04 253.802V294.64ZM151.541 132.837C151.287 133.005 151.049 133.193 150.8 133.365C149.286 134.396 147.838 135.489 146.436 136.637C146.213 136.82 145.959 136.977 145.735 137.165H45.72V111.765H157.48V129.332C157.302 129.423 157.145 129.54 156.967 129.637C155.097 130.627 153.279 131.689 151.541 132.837ZM101.6 243.84C104.404 243.84 106.68 241.564 106.68 238.76V203.657C121.072 206.091 132.08 218.603 132.08 233.68C132.08 250.49 118.41 264.16 101.6 264.16C84.7903 264.16 71.12 250.49 71.12 233.68C71.12 218.608 82.1284 206.091 96.52 203.657V238.76C96.52 241.564 98.7958 243.84 101.6 243.84ZM197.272 243.048C194.163 243.576 191.028 243.84 187.96 243.84C157.15 243.84 132.08 218.77 132.08 187.96C132.08 171.943 138.968 156.662 151.018 146.025C154.986 142.469 159.588 139.461 164.689 137.104C166.329 136.362 167.996 135.727 169.682 135.148C170.099 135.006 170.515 134.869 170.932 134.737C172.557 134.219 174.203 133.756 175.865 133.391C175.936 133.375 176.007 133.355 176.078 133.34C177.922 132.944 179.786 132.649 181.671 132.441C181.9 132.415 182.133 132.4 182.362 132.375C184.069 132.207 185.791 132.116 187.528 132.1C187.752 132.1 187.975 132.09 188.204 132.09C189.382 132.095 190.576 132.161 191.775 132.243C192.105 132.263 192.435 132.268 192.766 132.298C194.269 132.431 195.778 132.618 197.287 132.872C224.262 137.384 243.84 160.553 243.84 187.96C243.84 215.367 224.262 238.536 197.272 243.048Z" fill="#478BFB"/>
<path d="M187.96 147.32C185.156 147.32 182.88 149.596 182.88 152.4V193.04C182.88 195.844 185.156 198.12 187.96 198.12C190.764 198.12 193.04 195.844 193.04 193.04V152.4C193.04 149.596 190.764 147.32 187.96 147.32Z" fill="#478BFB"/>
<path d="M187.96 213.36C185.156 213.36 182.88 215.636 182.88 218.44V223.52C182.88 226.324 185.156 228.6 187.96 228.6C190.764 228.6 193.04 226.324 193.04 223.52V218.44C193.04 215.636 190.764 213.36 187.96 213.36Z" fill="#478BFB"/>
</svg>
