<svg width="335" height="418" viewBox="0 0 335 418" fill="none" xmlns="http://www.w3.org/2000/svg">
<path d="M104.557 27.8666H90.6158V41.8H104.557V27.8666Z" fill="#478BFB"/>
<path d="M160.32 27.8666H118.498V41.8H160.32V27.8666Z" fill="#478BFB"/>
<path d="M146.379 376.2H132.438V390.133H146.379V376.2Z" fill="#478BFB"/>
<path d="M324.126 114.393C319.317 111.631 313.609 110.887 308.252 112.323C302.896 113.76 298.327 117.26 295.547 122.056L278.818 151.037V41.8C278.818 30.714 274.411 20.082 266.568 12.2429C258.725 4.40392 248.087 0 236.995 0H41.8227C30.7306 0 20.0928 4.40392 12.2496 12.2429C4.40631 20.082 0 30.714 0 41.8V376.2C0 387.286 4.40631 397.918 12.2496 405.757C20.0928 413.596 30.7306 418 41.8227 418H236.995C248.087 418 258.725 413.596 266.568 405.757C274.411 397.918 278.818 387.286 278.818 376.2V234.637L331.793 142.956C334.539 138.146 335.274 132.447 333.839 127.098C332.403 121.749 328.912 117.183 324.126 114.393ZM13.9409 41.8C13.9409 34.4093 16.8784 27.3213 22.1073 22.0953C27.3361 16.8693 34.428 13.9333 41.8227 13.9333H236.995C244.39 13.9333 251.482 16.8693 256.71 22.0953C261.939 27.3213 264.877 34.4093 264.877 41.8V55.7333H13.9409V41.8ZM264.877 376.2C264.877 383.591 261.939 390.679 256.71 395.905C251.482 401.131 244.39 404.067 236.995 404.067H41.8227C34.428 404.067 27.3361 401.131 22.1073 395.905C16.8784 390.679 13.9409 383.591 13.9409 376.2V362.267H264.877V376.2ZM264.877 348.333H13.9409V69.6667H264.877V175.142L204.931 278.945C204.381 279.877 204.07 280.93 204.025 282.011L202.143 313.082C202.071 314.372 202.359 315.656 202.975 316.792C203.591 317.927 204.511 318.87 205.632 319.513C206.752 320.156 208.03 320.475 209.322 320.434C210.614 320.394 211.869 319.995 212.947 319.282L238.947 302.144C239.857 301.56 240.621 300.773 241.177 299.845L264.877 258.742V348.333ZM229.885 291.416L216.92 299.985L217.826 284.449L297.15 147.136L309.279 154.103L229.885 291.416ZM319.734 135.989L316.249 141.981L304.12 135.014L307.606 129.023C308.53 127.415 310.055 126.241 311.846 125.757C313.637 125.274 315.547 125.521 317.155 126.445C318.764 127.369 319.939 128.893 320.422 130.683C320.906 132.473 320.659 134.382 319.734 135.989Z" fill="#478BFB"/>
<path d="M48.7931 181.133H70.2621C71.5441 190.098 75.2986 198.53 81.1049 205.482C86.9112 212.435 94.5399 217.634 103.136 220.498C111.732 223.362 120.957 223.776 129.776 221.695C138.594 219.614 146.659 215.12 153.066 208.717C159.473 202.313 163.97 194.252 166.052 185.438C168.134 176.625 167.719 167.405 164.854 158.814C161.989 150.222 156.787 142.597 149.83 136.794C142.874 130.991 134.438 127.239 125.468 125.957V104.5C125.468 102.652 124.734 100.88 123.426 99.5738C122.119 98.2673 120.346 97.5333 118.498 97.5333H48.7931C46.9444 97.5333 45.1715 98.2673 43.8643 99.5738C42.557 100.88 41.8227 102.652 41.8227 104.5V174.167C41.8227 176.014 42.557 177.786 43.8643 179.093C45.1715 180.399 46.9444 181.133 48.7931 181.133ZM153.35 174.167C153.358 182.805 150.155 191.138 144.362 197.549C138.569 203.96 130.599 207.991 122 208.859C113.401 209.727 104.786 207.37 97.8269 202.247C90.8681 197.124 86.0623 189.599 84.3424 181.133H118.498C120.346 181.133 122.119 180.399 123.426 179.093C124.734 177.786 125.468 176.014 125.468 174.167V140.03C133.335 141.647 140.403 145.925 145.482 152.143C150.561 158.362 153.34 166.14 153.35 174.167ZM84.3424 167.2C85.7218 160.512 89.0317 154.374 93.863 149.545C98.6943 144.717 104.835 141.409 111.527 140.03V167.2H84.3424ZM55.7636 111.467H111.527V125.957C101.121 127.47 91.4814 132.301 84.0456 139.733C76.6097 147.165 71.7751 156.799 70.2621 167.2H55.7636V111.467Z" fill="#478BFB"/>
<path d="M90.6158 296.083C90.6158 293.312 91.7174 290.654 93.6782 288.694C95.639 286.734 98.2984 285.633 101.071 285.633H142.894C149.364 285.633 155.57 283.064 160.145 278.492C164.72 273.919 167.291 267.717 167.291 261.25C167.291 254.783 164.72 248.581 160.145 244.008C155.57 239.436 149.364 236.867 142.894 236.867H41.8227V250.8H142.894C145.667 250.8 148.327 251.901 150.287 253.861C152.248 255.82 153.35 258.478 153.35 261.25C153.35 264.022 152.248 266.68 150.287 268.639C148.327 270.599 145.667 271.7 142.894 271.7H101.071C94.6011 271.7 88.3957 274.269 83.8205 278.842C79.2452 283.414 76.6749 289.616 76.6749 296.083C76.6749 302.55 79.2452 308.752 83.8205 313.325C88.3957 317.898 94.6011 320.467 101.071 320.467H188.202V306.533H101.071C98.2984 306.533 95.639 305.432 93.6782 303.473C91.7174 301.513 90.6158 298.855 90.6158 296.083Z" fill="#478BFB"/>
<path d="M195.172 167.2H181.232V181.133H195.172V167.2Z" fill="#478BFB"/>
<path d="M223.054 167.2H209.113V181.133H223.054V167.2Z" fill="#478BFB"/>
<path d="M195.172 139.333H181.232V153.267H195.172V139.333Z" fill="#478BFB"/>
<path d="M223.054 139.333H209.113V153.267H223.054V139.333Z" fill="#478BFB"/>
</svg>
