<svg width="95" height="82" viewBox="0 0 95 82" fill="none" xmlns="http://www.w3.org/2000/svg">
<path d="M40.2 47.4H44.6C45 47.4 45.4 47.1 45.6 46.7L55.8 19.4C56.1 18.7 55.6 18 54.8 18H50.4C50 18 49.6 18.3 49.4 18.7L39.2 46.1C39 46.7 39.5 47.4 40.2 47.4Z" fill="#478BFB"/>
<path d="M31.4 47.5C31.8 47.9 32.5 47.9 32.9 47.5L35.8 44.6C36.2 44.2 36.2 43.5 35.8 43.1L25.5 32.8L35.8 22.5C36.2 22.1 36.2 21.4 35.8 21L32.9 18.1C32.5 17.7 31.8 17.7 31.4 18.1L17.4 32.1C17 32.5 17 33.2 17.4 33.6L31.4 47.5Z" fill="#478BFB"/>
<path d="M59.2 44.5L62.1 47.4C62.5 47.8 63.2 47.8 63.6 47.4L77.6 33.4C78 33 78 32.3 77.6 31.9L63.6 17.9C63.2 17.5 62.5 17.5 62.1 17.9L59.2 20.8C58.8 21.2 58.8 21.9 59.2 22.3L69.5 32.8L59.2 43.1C58.8 43.5 58.8 44.1 59.2 44.5Z" fill="#478BFB"/>
<path d="M91.9 0H3.1C1.4 0 0 1.4 0 3.1V62.4C0 64.1 1.4 65.5 3.1 65.5H38.2V74.9H29.8C29.2 74.9 28.8 75.4 28.8 75.9V80.1C28.8 80.7 29.3 81.1 29.8 81.1H65.1C65.7 81.1 66.1 80.6 66.1 80.1V75.9C66.1 75.3 65.6 74.9 65.1 74.9H56.7V65.6H91.8C93.5 65.6 94.9 64.2 94.9 62.5V3.1C95 1.4 93.6 0 91.9 0ZM50.5 74.9H44.5V65.6H50.5V74.9ZM88.8 59.3H6.2V6.3H88.7V59.3H88.8Z" fill="#478BFB"/>
</svg>
