<svg width="92" height="81" viewBox="0 0 92 81" fill="none" xmlns="http://www.w3.org/2000/svg">
<path d="M3.23377 0.00180583C-0.605851 -0.114371 -1.24968 5.41104 2.51506 6.16953L9.45098 7.67861C13.1199 25.1125 17.1192 42.4752 20.9974 59.8653C21.3163 61.2912 22.5896 62.3057 24.0601 62.3053H79.137C83.3804 62.3677 83.3804 56.0127 79.137 56.0746H26.5776L25.1892 49.8458H81.9159C83.3863 49.8462 84.6596 48.8317 84.9785 47.4058L91.9247 16.2559C92.3577 14.3116 90.8686 12.4684 88.864 12.4672C64.8674 12.4678 40.871 12.4667 16.8751 12.4555L15.1702 4.42089C14.9161 3.22176 13.978 2.28208 12.7732 2.01946L3.85468 0.0803801C3.65079 0.033674 3.44303 0.00666862 3.23397 0.00156627L3.23377 0.00180583ZM18.2388 18.688C40.4778 18.6998 62.7176 18.6997 84.9559 18.6997L79.3982 43.6169H23.7985L18.2388 18.688ZM37.115 64.3845C32.5333 64.3845 28.7519 68.1411 28.7519 72.6923C28.7519 77.2437 32.5333 81 37.115 81C41.6967 81 45.4781 77.2437 45.4781 72.6923C45.4781 68.1411 41.6967 64.3845 37.115 64.3845ZM66.3859 64.3845C61.8043 64.3845 58.0228 68.1411 58.0228 72.6923C58.0228 77.2437 61.8043 81 66.3859 81C70.9676 81 74.749 77.2437 74.749 72.6923C74.749 68.1411 70.9676 64.3845 66.3859 64.3845Z" fill="#478BFB"/>
</svg>
