<svg width="202" height="43" viewBox="0 0 202 43" fill="none" xmlns="http://www.w3.org/2000/svg">
<path d="M56.9297 7.36719H65.7773V28.9492H79.5859V36H56.9297V7.36719Z" fill="#478BFB"/>
<path d="M106.109 27.6016H90.1719C90.3151 28.8776 90.6602 29.8281 91.207 30.4531C91.9753 31.3516 92.9779 31.8008 94.2148 31.8008C94.9961 31.8008 95.7383 31.6055 96.4414 31.2148C96.8711 30.9674 97.3333 30.5312 97.8281 29.9062L105.66 30.6289C104.462 32.7122 103.017 34.2096 101.324 35.1211C99.6315 36.0195 97.2031 36.4688 94.0391 36.4688C91.2917 36.4688 89.1302 36.0846 87.5547 35.3164C85.9792 34.5352 84.6706 33.3047 83.6289 31.625C82.6003 29.9323 82.0859 27.9466 82.0859 25.668C82.0859 22.4258 83.1211 19.8021 85.1914 17.7969C87.2747 15.7917 90.1458 14.7891 93.8047 14.7891C96.7734 14.7891 99.1172 15.2383 100.836 16.1367C102.555 17.0352 103.863 18.3372 104.762 20.043C105.66 21.7487 106.109 23.9688 106.109 26.7031V27.6016ZM98.0234 23.793C97.8672 22.2565 97.4505 21.1562 96.7734 20.4922C96.1094 19.8281 95.2305 19.4961 94.1367 19.4961C92.8737 19.4961 91.8646 19.9974 91.1094 21C90.6276 21.625 90.3216 22.556 90.1914 23.793H98.0234Z" fill="#478BFB"/>
<path d="M118.609 15.2578H122.398V21.0781H118.609V36H110.641V21.0781H107.672V15.2578H110.641V14.3203C110.641 13.474 110.732 12.543 110.914 11.5273C111.096 10.5117 111.435 9.6849 111.93 9.04688C112.438 8.39583 113.141 7.875 114.039 7.48438C114.951 7.08073 116.279 6.87891 118.023 6.87891C119.417 6.87891 121.441 7.04167 124.098 7.36719L123.219 12.1719C122.268 12.0156 121.5 11.9375 120.914 11.9375C120.198 11.9375 119.684 12.0612 119.371 12.3086C119.059 12.543 118.837 12.9206 118.707 13.4414C118.642 13.7279 118.609 14.3333 118.609 15.2578Z" fill="#478BFB"/>
<path d="M148.003 36H140.581V32.6406C139.474 34.0208 138.355 35.0039 137.222 35.5898C136.102 36.1758 134.722 36.4688 133.081 36.4688C130.894 36.4688 129.175 35.8177 127.925 34.5156C126.688 33.2005 126.07 31.1823 126.07 28.4609V15.2578H134.058V26.6641C134.058 27.9661 134.299 28.8906 134.78 29.4375C135.262 29.9844 135.939 30.2578 136.812 30.2578C137.762 30.2578 138.537 29.8932 139.136 29.1641C139.748 28.4349 140.054 27.1263 140.054 25.2383V15.2578H148.003V36Z" fill="#478BFB"/>
<path d="M152.221 30.2578L160.112 29.5156C160.437 30.4531 160.893 31.1237 161.479 31.5273C162.065 31.931 162.846 32.1328 163.823 32.1328C164.89 32.1328 165.717 31.9049 166.303 31.4492C166.759 31.1107 166.987 30.6875 166.987 30.1797C166.987 29.6068 166.687 29.1641 166.088 28.8516C165.659 28.6302 164.519 28.3568 162.67 28.0312C159.91 27.5495 157.989 27.1068 156.909 26.7031C155.841 26.2865 154.936 25.5898 154.194 24.6133C153.465 23.6367 153.1 22.5234 153.1 21.2734C153.1 19.9062 153.497 18.7279 154.291 17.7383C155.086 16.7487 156.179 16.013 157.573 15.5312C158.966 15.0365 160.834 14.7891 163.178 14.7891C165.652 14.7891 167.475 14.9779 168.647 15.3555C169.832 15.7331 170.815 16.319 171.596 17.1133C172.39 17.9076 173.048 18.9818 173.569 20.3359L166.03 21.0781C165.834 20.4141 165.509 19.9258 165.053 19.6133C164.428 19.1966 163.673 18.9883 162.787 18.9883C161.889 18.9883 161.232 19.151 160.815 19.4766C160.411 19.7891 160.209 20.1732 160.209 20.6289C160.209 21.1367 160.47 21.5208 160.991 21.7812C161.511 22.0417 162.644 22.276 164.389 22.4844C167.032 22.7839 168.998 23.2005 170.287 23.7344C171.577 24.2682 172.56 25.0299 173.237 26.0195C173.927 27.0091 174.272 28.0964 174.272 29.2812C174.272 30.4792 173.907 31.6445 173.178 32.7773C172.462 33.9102 171.323 34.8151 169.76 35.4922C168.211 36.1562 166.095 36.4883 163.412 36.4883C159.623 36.4883 156.922 35.9479 155.307 34.8672C153.705 33.7865 152.677 32.25 152.221 30.2578Z" fill="#478BFB"/>
<path d="M201.908 27.6016H185.97C186.114 28.8776 186.459 29.8281 187.005 30.4531C187.774 31.3516 188.776 31.8008 190.013 31.8008C190.795 31.8008 191.537 31.6055 192.24 31.2148C192.67 30.9674 193.132 30.5312 193.627 29.9062L201.459 30.6289C200.261 32.7122 198.815 34.2096 197.123 35.1211C195.43 36.0195 193.002 36.4688 189.837 36.4688C187.09 36.4688 184.929 36.0846 183.353 35.3164C181.778 34.5352 180.469 33.3047 179.427 31.625C178.399 29.9323 177.884 27.9466 177.884 25.668C177.884 22.4258 178.92 19.8021 180.99 17.7969C183.073 15.7917 185.944 14.7891 189.603 14.7891C192.572 14.7891 194.916 15.2383 196.634 16.1367C198.353 17.0352 199.662 18.3372 200.56 20.043C201.459 21.7487 201.908 23.9688 201.908 26.7031V27.6016ZM193.822 23.793C193.666 22.2565 193.249 21.1562 192.572 20.4922C191.908 19.8281 191.029 19.4961 189.935 19.4961C188.672 19.4961 187.663 19.9974 186.908 21C186.426 21.625 186.12 22.556 185.99 23.793H193.822Z" fill="#478BFB"/>
<path d="M31 21C24.6 23.4 14.6667 32.1667 10.5 36C11 36.8333 12.8 37.9 14 35.5C15.2 33.1 28.1667 23.8333 34.5 19.5C30.8583 21.054 31 21 31 21Z" fill="#478BFB"/>
<path d="M7.72104 36.7677C7.7487 36.6255 7.80816 36.4915 7.89499 36.3756C7.98181 36.2598 8.09374 36.165 8.22238 36.0986C8.22238 36.0986 11.6054 34.1721 11.7501 33.0872C11.5698 32.4468 11.5599 31.7704 11.7215 31.125C10.3119 31.2439 9.63841 31.0549 9.63841 31.0549C10.9827 29.1139 13.8922 25.4838 16.0001 23C23.5001 16 22.5001 16.5 25.0164 11.3624C22.2315 15.7251 18.4768 17.0435 14.0215 22.2422C11.4821 25.0828 9.18626 28.132 7.15814 31.3576C6.26774 32.3955 5.54413 34.143 5.1377 35.2669C5.94917 36.2386 6.84442 37.1372 7.81312 37.9522C7.72138 37.5651 7.68969 37.1662 7.71916 36.7695" fill="#478BFB"/>
<path d="M21.6536 0C15.9515 0 10.483 2.26515 6.45096 6.29713C2.41898 10.3291 0.153831 15.7977 0.153831 21.4998C0.147603 25.8068 1.44132 30.0155 3.86579 33.5754C3.91573 33.4568 3.99168 33.351 4.08803 33.2657C4.08803 33.2657 6.88281 30.4728 6.73386 29.3696C5.33601 27.3834 6.66668 21.6351 8.43385 18.6914C10.201 15.7476 13.5855 13.3908 18.0755 11.4046C22.5656 9.41851 26.9805 5.44154 28.087 4.92939C28.5287 7.13777 28.5287 10.23 27.7901 14.4978C27.5184 16.0678 27.0969 17.6082 26.5313 19.0978C26.7578 19.0602 26.9758 19.0165 27.2065 18.9822C31.9879 18.2642 37.2198 15.6396 38.403 15.4385C38.247 17.6506 37.4407 20.5882 35.6279 24.4491C33.8152 28.31 30.8109 32.1503 26.5726 34.4451C22.3344 36.7399 14.9768 36.9758 12.9225 34.6072C12.907 34.6072 12.891 34.61 12.8755 34.61C12.8755 34.61 12.8755 34.61 12.9225 34.6072L12.5001 34.5C12.5001 34.5 12.5001 34.5 11.6416 35.086C10.4233 35.9083 9.17249 37.5866 8.52924 38.5226C12.2862 41.4308 16.904 43.006 21.655 43C27.3571 42.9999 32.8257 40.7346 36.8576 36.7025C40.8896 32.6705 43.1548 27.2019 43.1548 21.4998C43.1548 15.7977 40.8896 10.3291 36.8576 6.29713C32.8256 2.26515 27.3571 0 21.655 0" fill="#478BFB"/>
</svg>
