<svg width="202" height="43" viewBox="0 0 202 43" fill="none" xmlns="http://www.w3.org/2000/svg">
<path d="M56.7759 7.36719H65.6235V28.9492H79.4321V36H56.7759V7.36719Z" fill="white"/>
<path d="M105.956 27.6016H90.0181C90.1613 28.8776 90.5063 29.8281 91.0532 30.4531C91.8215 31.3516 92.8241 31.8008 94.061 31.8008C94.8423 31.8008 95.5845 31.6055 96.2876 31.2148C96.7173 30.9674 97.1795 30.5312 97.6743 29.9062L105.506 30.6289C104.308 32.7122 102.863 34.2096 101.17 35.1211C99.4777 36.0195 97.0493 36.4688 93.8853 36.4688C91.1379 36.4688 88.9764 36.0846 87.4009 35.3164C85.8254 34.5352 84.5168 33.3047 83.4751 31.625C82.4465 29.9323 81.9321 27.9466 81.9321 25.668C81.9321 22.4258 82.9673 19.8021 85.0376 17.7969C87.1209 15.7917 89.992 14.7891 93.6509 14.7891C96.6196 14.7891 98.9634 15.2383 100.682 16.1367C102.401 17.0352 103.709 18.3372 104.608 20.043C105.506 21.7487 105.956 23.9688 105.956 26.7031V27.6016ZM97.8696 23.793C97.7134 22.2565 97.2967 21.1562 96.6196 20.4922C95.9556 19.8281 95.0767 19.4961 93.9829 19.4961C92.7199 19.4961 91.7108 19.9974 90.9556 21C90.4738 21.625 90.1678 22.556 90.0376 23.793H97.8696Z" fill="white"/>
<path d="M118.456 15.2578H122.245V21.0781H118.456V36H110.487V21.0781H107.518V15.2578H110.487V14.3203C110.487 13.474 110.578 12.543 110.76 11.5273C110.943 10.5117 111.281 9.6849 111.776 9.04688C112.284 8.39583 112.987 7.875 113.885 7.48438C114.797 7.08073 116.125 6.87891 117.87 6.87891C119.263 6.87891 121.288 7.04167 123.944 7.36719L123.065 12.1719C122.114 12.0156 121.346 11.9375 120.76 11.9375C120.044 11.9375 119.53 12.0612 119.217 12.3086C118.905 12.543 118.683 12.9206 118.553 13.4414C118.488 13.7279 118.456 14.3333 118.456 15.2578Z" fill="white"/>
<path d="M147.849 36H140.427V32.6406C139.321 34.0208 138.201 35.0039 137.068 35.5898C135.948 36.1758 134.568 36.4688 132.927 36.4688C130.74 36.4688 129.021 35.8177 127.771 34.5156C126.534 33.2005 125.916 31.1823 125.916 28.4609V15.2578H133.904V26.6641C133.904 27.9661 134.145 28.8906 134.627 29.4375C135.108 29.9844 135.786 30.2578 136.658 30.2578C137.608 30.2578 138.383 29.8932 138.982 29.1641C139.594 28.4349 139.9 27.1263 139.9 25.2383V15.2578H147.849V36Z" fill="white"/>
<path d="M152.067 30.2578L159.958 29.5156C160.283 30.4531 160.739 31.1237 161.325 31.5273C161.911 31.931 162.692 32.1328 163.669 32.1328C164.737 32.1328 165.563 31.9049 166.149 31.4492C166.605 31.1107 166.833 30.6875 166.833 30.1797C166.833 29.6068 166.533 29.1641 165.934 28.8516C165.505 28.6302 164.365 28.3568 162.517 28.0312C159.756 27.5495 157.836 27.1068 156.755 26.7031C155.687 26.2865 154.782 25.5898 154.04 24.6133C153.311 23.6367 152.946 22.5234 152.946 21.2734C152.946 19.9062 153.343 18.7279 154.138 17.7383C154.932 16.7487 156.026 16.013 157.419 15.5312C158.812 15.0365 160.681 14.7891 163.024 14.7891C165.498 14.7891 167.321 14.9779 168.493 15.3555C169.678 15.7331 170.661 16.319 171.442 17.1133C172.237 17.9076 172.894 18.9818 173.415 20.3359L165.876 21.0781C165.681 20.4141 165.355 19.9258 164.899 19.6133C164.274 19.1966 163.519 18.9883 162.634 18.9883C161.735 18.9883 161.078 19.151 160.661 19.4766C160.257 19.7891 160.056 20.1732 160.056 20.6289C160.056 21.1367 160.316 21.5208 160.837 21.7812C161.358 22.0417 162.49 22.276 164.235 22.4844C166.878 22.7839 168.845 23.2005 170.134 23.7344C171.423 24.2682 172.406 25.0299 173.083 26.0195C173.773 27.0091 174.118 28.0964 174.118 29.2812C174.118 30.4792 173.753 31.6445 173.024 32.7773C172.308 33.9102 171.169 34.8151 169.606 35.4922C168.057 36.1562 165.941 36.4883 163.259 36.4883C159.47 36.4883 156.768 35.9479 155.153 34.8672C153.552 33.7865 152.523 32.25 152.067 30.2578Z" fill="white"/>
<path d="M201.754 27.6016H185.816C185.96 28.8776 186.305 29.8281 186.852 30.4531C187.62 31.3516 188.622 31.8008 189.859 31.8008C190.641 31.8008 191.383 31.6055 192.086 31.2148C192.516 30.9674 192.978 30.5312 193.473 29.9062L201.305 30.6289C200.107 32.7122 198.662 34.2096 196.969 35.1211C195.276 36.0195 192.848 36.4688 189.684 36.4688C186.936 36.4688 184.775 36.0846 183.199 35.3164C181.624 34.5352 180.315 33.3047 179.274 31.625C178.245 29.9323 177.731 27.9466 177.731 25.668C177.731 22.4258 178.766 19.8021 180.836 17.7969C182.919 15.7917 185.79 14.7891 189.449 14.7891C192.418 14.7891 194.762 15.2383 196.481 16.1367C198.199 17.0352 199.508 18.3372 200.406 20.043C201.305 21.7487 201.754 23.9688 201.754 26.7031V27.6016ZM193.668 23.793C193.512 22.2565 193.095 21.1562 192.418 20.4922C191.754 19.8281 190.875 19.4961 189.781 19.4961C188.518 19.4961 187.509 19.9974 186.754 21C186.272 21.625 185.966 22.556 185.836 23.793H193.668Z" fill="white"/>
<path d="M30.8462 21C24.4462 23.4 14.5129 32.1667 10.3462 36C10.8462 36.8333 12.6462 37.9 13.8462 35.5C15.0462 33.1 28.0129 23.8333 34.3462 19.5C30.7045 21.054 30.8462 21 30.8462 21Z" fill="white"/>
<path d="M7.56723 36.7677C7.59489 36.6255 7.65435 36.4915 7.74118 36.3756C7.828 36.2598 7.93993 36.165 8.06857 36.0986C8.06857 36.0986 11.4516 34.1721 11.5963 33.0872C11.416 32.4468 11.4061 31.7704 11.5677 31.125C10.1581 31.2439 9.4846 31.0549 9.4846 31.0549C10.8289 29.1139 13.7384 25.4838 15.8463 23C23.3463 16 22.3463 16.5 24.8626 11.3624C22.0777 15.7251 18.323 17.0435 13.8677 22.2422C11.3283 25.0828 9.03245 28.132 7.00433 31.3576C6.11393 32.3955 5.39032 34.143 4.98389 35.2669C5.79536 36.2386 6.69061 37.1372 7.65932 37.9522C7.56757 37.5651 7.53588 37.1662 7.56535 36.7695" fill="white"/>
<path d="M21.4998 0C15.7977 0 10.3291 2.26515 6.29716 6.29713C2.26517 10.3291 2.23796e-05 15.7977 2.23796e-05 21.4998C-0.00620543 25.8068 1.28751 30.0155 3.71198 33.5754C3.76192 33.4568 3.83787 33.351 3.93422 33.2657C3.93422 33.2657 6.729 30.4728 6.58005 29.3696C5.1822 27.3834 6.51287 21.6351 8.28004 18.6914C10.0472 15.7476 13.4317 13.3908 17.9217 11.4046C22.4118 9.41851 26.8267 5.44154 27.9332 4.92939C28.3749 7.13777 28.3749 10.23 27.6362 14.4978C27.3646 16.0678 26.9431 17.6082 26.3775 19.0978C26.604 19.0602 26.822 19.0165 27.0527 18.9822C31.8341 18.2642 37.066 15.6396 38.2492 15.4385C38.0932 17.6506 37.2869 20.5882 35.4741 24.4491C33.6614 28.31 30.657 32.1503 26.4188 34.4451C22.1806 36.7399 14.8229 36.9758 12.7687 34.6072C12.7532 34.6072 12.7372 34.61 12.7217 34.61C12.7217 34.61 12.7217 34.61 12.7687 34.6072L12.3463 34.5C12.3463 34.5 12.3463 34.5 11.4878 35.086C10.2695 35.9083 9.01868 37.5866 8.37543 38.5226C12.1323 41.4308 16.7502 43.006 21.5012 43C27.2033 42.9999 32.6719 40.7346 36.7038 36.7025C40.7358 32.6705 43.0009 27.2019 43.0009 21.4998C43.0009 15.7977 40.7358 10.3291 36.7038 6.29713C32.6718 2.26515 27.2033 0 21.5012 0" fill="white"/>
</svg>
