<?xml version="1.0" encoding="utf-8"?>
<!-- Generator: Adobe Illustrator 25.3.1, SVG Export Plug-In . SVG Version: 6.00 Build 0)  -->
<svg version="1.1" id="Layer_1" xmlns="http://www.w3.org/2000/svg" xmlns:xlink="http://www.w3.org/1999/xlink" x="0px" y="0px"
	 viewBox="0 0 1143.63 1143.63" style="enable-background:new 0 0 1143.63 1143.63;" xml:space="preserve">
<style type="text/css">
	.st0{opacity:0.7;fill:#61CAE1;}
	.st1{fill:#61CAE1;}
	.st2{fill:#434344;}
	.st3{fill:#FFFFFF;}
	.st4{fill:none;}
</style>
<g>
	<path id="XMLID_101_" class="st0" d="M409.58,864.25c0,0-17.39,34.45-23.37,70.75c-2.96,18.58-2.67,37.94,1.95,57.02
		c3.27,3.73-29.48,22.59-60.66-28.65c-2.73-5.8-18.82-34.33-13.93-65.51C361.16,874.17,409.58,864.25,409.58,864.25z"/>
	<path id="XMLID_97_" class="st0" d="M239.96,633.28c-64.06,14.22-69.37-17.27-69.34-17.08c-0.79-2.94-1.15-5.66-1.15-8.19
		c2.69,1.16,5.48,1.81,7.95,1.95c43.45,5.44,51.79-28.05,31.35-33.36c-20.25-4.69-33.79,1.59-42.75,10.87
		c-5.36-12.13,0.59-30.28,0.06-30.02c-12.44,18.93-12.5,32.07-7.87,40.49c-1.83,3.18-3.33,6.38-4.53,9.36
		c-10.26,20.71-5.6,50.91,51.26,67.2C215.74,658.73,239.96,633.28,239.96,633.28z M196.4,583.32c11.47,2.07,1.57,14.01-7.48,14.5
		c-7.09,0.77-12.25-0.31-16.01-2.44C178.21,586.84,188.51,582.6,196.4,583.32z"/>
	<g>
		<path id="XMLID_100_" class="st0" d="M982.91,825.32c0,0-107.54-21.49-164.84-180.33c-1.62,5.02-14.07,72.01-67.21,121.8
			c-2.29,2.01,121.8,86.77,207.62,92.26C991.06,863.14,1006.42,831.86,982.91,825.32z"/>
		<path id="XMLID_96_" class="st1" d="M463.89,487.52c0,0-297.24,115.85-307.81,310.49c-4.51,51.08-2.63,149,27.12,218.51
			c4.59,12.07,52.81,12.85,57.67-26.7c0,0,5.13-54.36,41.65-76.06c25.65-14.11,112.09-70.69,326.17-70.02
			c4.7,18.96,16.47,32.21,36.12,50.39c47.57,37.03,137.64,70.26,137.64,70.26c30.5,12.17,75.05,0.76,5.01-58.41
			c-21.75-21.07-113.34-86.28-65.19-116.82c0,0,105.86-58.11,104.14-223.56c-0.24-6.41,21.68-109.27,21.68-109.27
			s110.24-89.68,89.35-136.05c-5-5.26-28.42-10.06-73.76-8.18c17.77-55.88,40.58-116.27,33.92-177.29c0,0-32.12-4.77-111.7,26.18
			c-92.15-1.19-146.53,13.91-146.53,13.91S467.53,198.37,472.9,462.18L463.89,487.52z"/>
	</g>
	<path id="XMLID_95_" class="st2" d="M563.85,329.05c0,0-100.84,12.27-109.12,59.65c0.48,37.96,21.49,79.14,102.85,120.4
		C557.45,503.38,630.19,326.63,563.85,329.05z"/>
	<path id="XMLID_94_" class="st3" d="M460.44,490.08c0,0,148.9,207.81,370,60.06c12.13-6.35,6.34-18.76-0.98-15.03
		c-27.14,9.95-193.84,142.23-359.66-56.06C469.8,479.06,457.9,476.43,460.44,490.08z"/>
	<path id="XMLID_93_" class="st2" d="M933.85,324.95c0,0,14.48,52.46-89.18,61.16c-0.46-11.55,5.3-41.27,17.24-66.63
		C861.91,319.48,918.89,314.79,933.85,324.95z"/>
	<path id="XMLID_92_" class="st2" d="M703.05,385.15c0,0-80.31-58.27,17.83-84.09c5.04-0.75,6.78,3.3,0.87,5.43
		c-42.81,15.29-46.61,42.24-16.06,75.24C708.46,384.74,705.89,387.21,703.05,385.15z"/>
	<path id="XMLID_91_" class="st2" d="M909.63,119.13l-11.27,68.02c0,0-15.17-22.24-24.88-29.67c-11.42-8.77-30.72-14.77-30.72-14.77
		L909.63,119.13z"/>
</g>
<rect id="XMLID_1_" x="-0.01" y="-0.34" class="st4" width="1143.64" height="1143.63"/>
</svg>
