<svg width="113" height="87" viewBox="0 0 113 87" fill="none" xmlns="http://www.w3.org/2000/svg">
<path d="M66.2312 81.401C65.9557 82.1633 65.2046 82.6507 64.3096 82.6507H43.3529C42.4578 82.6507 41.7066 82.1633 41.4313 81.401H0V82.6483C0 84.8466 1.78525 86.4 3.98721 86.4H103.675C105.877 86.4 107.662 84.8465 107.662 82.6483V81.401H66.2312Z" fill="#478BFB"/>
<path d="M60.0907 35.1608H28.7935V37.6602H60.0907V35.1608Z" fill="#478BFB"/>
<path d="M57.5869 31.4115H28.7935V33.911H57.5869V31.4115Z" fill="#478BFB"/>
<path d="M55.0831 38.9099H28.7935V41.4094H55.0831V38.9099Z" fill="#478BFB"/>
<path d="M112.716 3.01742C113.094 2.64004 113.094 2.02761 112.716 1.65023L111.347 0.283035C110.969 -0.0943451 110.355 -0.0943451 109.977 0.283035L77.1165 30.3543C76.7385 30.7317 76.7385 31.3441 77.1165 31.7215L81.224 35.8219C81.602 36.1993 82.2155 36.1993 82.5935 35.8219L112.716 3.01742Z" fill="#478BFB"/>
<path d="M65.7593 49.479C67.6183 48.5517 68.059 50.1114 68.059 50.1114C68.059 50.1114 75.2887 45.5186 79.2322 37.6453C77.9177 36.333 77.2604 35.6769 77.2604 35.6769C77.2604 35.6769 76.3753 34.7934 75.0609 33.4812C67.174 37.4179 62.6022 44.6639 62.6022 44.6639C62.6022 44.6639 64.1946 45.1326 63.2643 46.9884C62.3354 48.8442 58.0865 46.7171 56.1148 51.3099C54.4773 55.1241 52.2852 60.6092 52.2852 60.6092C52.2852 60.6092 57.6659 58.3072 61.4866 56.6725C66.0885 54.704 63.9001 50.4075 65.7593 49.479ZM58.8901 54.0167C58.1816 53.3094 58.1816 52.162 58.8901 51.4547C59.5986 50.7474 60.7479 50.7474 61.4565 51.4547C62.165 52.162 62.165 53.3094 61.4565 54.0167C60.7479 54.7253 59.5986 54.7253 58.8901 54.0167Z" fill="#478BFB"/>
<path d="M96.2227 24.5655C96.3229 24.7454 96.3955 24.9417 96.3955 25.1629V72.6529C96.3955 73.3427 95.8346 73.9027 95.1436 73.9027H12.5188C11.8278 73.9027 11.267 73.3427 11.267 72.6529V25.1629C11.267 24.4731 11.8278 23.9131 12.5188 23.9131H80.5641L86.0274 18.9142H11.267C8.76318 18.9142 6.2594 18.9142 6.2594 21.4137V78.9016H101.403V21.4137C101.403 20.1876 101.399 19.5678 101.104 19.2492L96.2227 24.5655Z" fill="#478BFB"/>
<path d="M69.4035 52.221L66.9798 53.7606C66.6731 55.0128 66.0434 56.4562 64.6225 57.656H81.3728V60.1555H59.7038L53.2728 62.9074L51.3273 63.7397V66.4042H28.7934V55.1565H51.3274V56.3026C52.0773 54.463 53.0137 52.1909 53.815 50.3263C53.8412 50.2651 53.8725 50.2175 53.8989 50.1576H13.7708V71.4031H93.8917V50.1576H72.1614C70.6178 51.4361 69.5211 52.1459 69.4035 52.221ZM71.3577 63.9047H57.5869V61.4052H71.3577V63.9047Z" fill="#478BFB"/>
</svg>
