<svg width="105" height="68" viewBox="0 0 105 68" fill="none" xmlns="http://www.w3.org/2000/svg">
<path d="M78.4519 21.316C82.1058 21.316 85.068 18.3539 85.068 14.6999C85.068 11.0459 82.1058 8.08377 78.4519 8.08377C74.7979 8.08377 71.8357 11.0459 71.8357 14.6999C71.8357 18.3539 74.7979 21.316 78.4519 21.316Z" fill="#478BFB"/>
<path d="M25.7119 21.4178C29.3652 21.4178 32.3268 18.4562 32.3268 14.8029C32.3268 11.1496 29.3652 8.18799 25.7119 8.18799C22.0586 8.18799 19.097 11.1496 19.097 14.8029C19.097 18.4562 22.0586 21.4178 25.7119 21.4178Z" fill="#478BFB"/>
<path d="M27.4777 23.2201L17.6426 23.2904L4.41156 10.0581L0 14.4697L16.8924 31.3609V67.3248H23.5085V49.6834H27.9189V67.3248H34.535V30.2762C34.535 26.3821 31.3754 23.2201 27.4777 23.2201Z" fill="#478BFB"/>
<path d="M105 14.3387L100.59 9.92719L87.3598 23.1582L76.6885 23.117C72.7932 23.117 69.6324 26.2754 69.6324 30.1731V67.2229H76.2485V49.5803H80.6601V67.2229H87.275V31.888L87.3598 31.9814L105 14.3387Z" fill="#478BFB"/>
<path d="M69.6663 0H63.4283V16.3797L60.9983 18.8097H43.3557L40.7718 16.2258V0H34.535V18.8097L43.3557 27.6304V67.3248H49.9706V45.273H54.3822V67.3248H60.9983V27.6304L69.6663 18.9636V0Z" fill="#478BFB"/>
<path d="M52.1764 14.3994C55.8304 14.3994 58.7925 11.4373 58.7925 7.78328C58.7925 4.12929 55.8304 1.16714 52.1764 1.16714C48.5224 1.16714 45.5603 4.12929 45.5603 7.78328C45.5603 11.4373 48.5224 14.3994 52.1764 14.3994Z" fill="#478BFB"/>
</svg>
