<svg width="32" height="32" viewBox="0 0 32 32" fill="none" xmlns="http://www.w3.org/2000/svg">
<path fill-rule="evenodd" clip-rule="evenodd" d="M18.1034 15.2489L14.4765 13.5442C14.3293 13.46 14.1978 13.4544 14.0822 13.528C13.9666 13.6017 13.9087 13.7335 13.9087 13.923V17.1115C13.9087 17.2799 13.9666 17.401 14.0822 17.4747C14.1978 17.5483 14.3293 17.5432 14.4765 17.4591L18.1034 15.7856C18.2717 15.7014 18.3558 15.6069 18.3558 15.5016C18.3558 15.3964 18.2717 15.3121 18.1034 15.2489ZM15.5172 0C13.3726 0 11.3593 0.405189 9.47751 1.21552C7.59566 2.02585 5.95566 3.13104 4.55742 4.53071C3.15918 5.93037 2.05005 7.57207 1.23003 9.45582C0.41001 11.3396 0 13.3548 0 15.5016C0 17.6485 0.41001 19.6637 1.23003 21.5474C2.05005 23.4312 3.15918 25.0729 4.55742 26.4725C5.95566 27.8722 7.59566 28.9825 9.47751 29.8033C11.3593 30.6242 13.3726 31.0345 15.5172 31.0345C17.6619 31.0345 19.6751 30.6242 21.557 29.8033C23.4388 28.9825 25.0788 27.8722 26.4771 26.4725C27.8753 25.0729 28.9844 23.4312 29.8045 21.5474C30.6245 19.6637 31.0345 17.6485 31.0345 15.5016C31.0345 13.3548 30.6245 11.3396 29.8045 9.45582C28.9844 7.57207 27.8753 5.93037 26.4771 4.53071C25.0788 3.13104 23.4388 2.02585 21.557 1.21552C19.6751 0.405189 17.6619 0 15.5172 0ZM15.5172 21.8157C11.5433 21.8157 9.20417 21.4632 8.4998 20.7581C7.79542 20.053 7.44322 18.3009 7.44322 15.5016C7.44322 12.7023 7.79542 10.9554 8.4998 10.2608C9.20417 9.56621 11.5433 9.21875 15.5172 9.21875C19.4912 9.21875 21.8303 9.56621 22.5347 10.2608C23.2391 10.9554 23.5913 12.7023 23.5913 15.5016C23.5913 18.3009 23.2391 20.053 22.5347 20.7581C21.8303 21.4632 19.4912 21.8157 15.5172 21.8157Z" fill="white"/>
</svg>
